/* XPM */
static char * MelonWater_xpm[] = {
"64 64 30 1",
" 	c None",
".	c #000000",
"+	c #1C1030",
"@	c #1C1030",
"#	c #170625",
"$	c #FF426C",
"%	c #BAAE89",
"&	c #FF7592",
"*	c #FC0E3D",
"=	c #FF7591",
"-	c #FF426D",
";	c #FF416C",
">	c #CED0A0",
",	c #722238",
"'	c #FF2B59",
")	c #9E9415",
"!	c #FC0F3E",
"~	c #5C4B0E",
"{	c #591228",
"]	c #FF2C59",
"^	c #766D25",
"/	c #9E9313",
"(	c #460219",
"_	c #5B4A0E",
":	c #BCCB1B",
"<	c #F6FED2",
"[	c #756C25",
"}	c #45421B",
"|	c #45411B",
"1	c #FFFFFF",
"^^^^^^^^^^^^^^^^^^^^^^^^^^^^^^^^^^^^^^^^^^^^^^^^^^^^^^^^^^^^^^^^",
"^^^^^^^^^^^^^^^^^^^^^^^^^^^^^^^^^^^^^^^^^^^^^^^^^^^^^^^^^^^^^^^^",
"^^^^^^^^^^^^^^^^^^^^^^^^^^^^^^^^^^^^^^^^^^^^^^^^^^^^^^[[[[^^^^^^",
"^^^^^^^^^^^^^^^^^^^^^^^^^^^^^^^^^^^^^^^^^^^^^^^^^^^[[[[[[[[[[^^^",
"^^^^^^^^^^^^^^^^^^^^^^^^^^^^^^^^^^^^^^^^^^^^^^^^^^^[[}}}}}}[[^^^",
"^^^^^^^^^^^^^^^^^^^^^^^^^^^^^^^^^^^^^^^^^^^^^^^^^^^[}}+...}}[^^^",
"^^^^^^^^^^^^^^^^^^^^^^^^^^^^^^^^^^^^^^^^^^^^^^^^^^[[[{{{||}}[[^^",
"^^^^^^^^^^^^^^^^^^^^^^^^^^^^^^^^^^^^^^^^^^^[[[[[[[[[,,,,[[[^^[[[",
"^^^^^^^^^^^^^^^^^^^^^^^^^^^^^^^^^^^^^^^^^^^[[}}}}}}[]'$$%%%^^[}}",
"^^^^^^^^^^^^^^^^^^^^^^^^^^^^^^^^^^^^^^^^^^^[}}#.#+|,!]-=%%%%^}++",
"^^^^^^^^^^^^^^^^^^^^^^^^^^^^^^^^^^^^^^^^^^[[[{{{+{,,']-=%%%%[|..",
"^^^^^^^^^^^^^^^^^^^^^^^^^^^^^^^^^^^[[[[[[[[[,,,,,,,]''$=%%%%[|..",
"^^^^^^^^^^^^^^^^^^^^^^^^^^^^^^^^^^^[[}}}}}}[$-====--]'$=%%%%[|..",
"^^^^^^^^^^^^^^^^^^^^^^^^^^^^^^^^^^^[}}#.#+,,-==&&==-]!]$%%%%[|..",
"^^^^^^^^^^^^^^^^^^^^^^^^^^^^^^^^^^[[[{{{+{,,==&&&&=-]*]$%%%%[|..",
"^^^^^^^^^^^^^^^^^^^^^^^^^^^[[[[[[[[[,,,,,,,-=======-'*]$%%%%[|..",
"^^^^^^^^^^^^^^^^^^^^^^^^^^^[[}}}}}}[$-=====-----==-;'*]$%%%%[|..",
"^^^^^^^^^^^^^^^^^^^^^^^^^^^[}}#.#+,,-==&&===-------]**]$%%%%[|..",
"^^^^^^^^^^^^^^^^^^^^^^^^^^[[[{{{+{,,==&&&&==---;;;;'**]=%%%%^|..",
"^^^^^^^^^^^^^^^^^^^[[[[[[[[[,,,,,,,-=========-----;'**]=%%%%^|..",
"^^^^^^^^^^^^^^^^^^^[[}}}}}}[$-=======-----======--;!**]=%>%%^|..",
"^^^^^^^^^^^^^^^^^^^[}}#.#+,,-==&&===---;;--=====--;!**]=%>>%^}..",
"^^^^^^^[^^^^^^^^^^[[[{{{+{,,==&&&&==--;]];--====--;!**]=>>>%%}..",
"^^^^[[[[[[[[[[[[[[[[,,,,,,,-========-;]]];;--==--$]!**]=>>>%%}..",
"^^^[[}}}}}}}}}}}}}}[$-=======--===---;;;;;;$$$$$$;'***!=>>>%%}..",
"^^^[}}++#+++++++++,,-==&&===--------;;;;;-;;,,,,]]'***]=>>>%%}..",
"^^[[}}|||}||{{((#{,,==&&&&==--;;;;;-------;],,,,!'''!]$=%>>%^}..",
"[[[[[~[[^^^^,,,,,,,-========-;]]];;-------;]],,!*!]$$==%%%%%[|..",
"}}[[~^^%%%%%$***;-===--===---;;]];--====--;;;]]!**]$=%%%%%^[}+##",
"++}~^/)%%>>%=!*!-====-------;;;;;;--====--;;;;;'**]=%>>%%^~||+##",
"##|~^/)%%>>%=$]$====--;;;;;$----;;--====--;;--;!**]=>>>%%[|(.###",
"##+_[/)%%%%%%======--;;;;;;----------==----;-;;!**]=>>>%%[|(.###",
"##+|~[^^^%%%%%%==-$;;;;;;;--====--;;$,,$$---;;]***!=>>>%%^~|(+##",
"##+|_~~~~~^%%>>%=$*!';-;;;--=====-;],,,,;$-;;]'***]=>>>%%^~_|+##",
"##+||___|_[%%>>>=]**!;;;;;--====--;],{{,];;;]''!!]$=%>>%%^~~}+++",
"##++||____^%%>>>=!***];;;----==---;]!,,!];;'!*!$$==%%%%%^[~}}}}}",
"###+||_~~[^%%>>>=****';;---$$,,$$-;;]!!']]]!**!$=%%%%%^^[}}}[[[[",
"##++||~~^/)%>>>>=!***'];;-;],,,,]$-;]]'']]'***]=%>>%%^~||++}[[^^",
"##+||~~^//)%%>>%=$$]'''';;;],{{,];;;]''''''!!]$=>>>%^~(..#|}[^^^",
"##+|~[^///:%%%%%>&==$!**';;]!,,!];;]'!****!$$==%%%%%^|..+}}[[^^^",
"##+}[^//::::)^%%><<>=****']]'!!']]]'!*****!$=%>%%%%^[|.+}}[[[^^^",
"##|~^/):::://~^%><<<=]***']]]'']]]''******]=%>>%%^^~|++}}[[[^^^^",
"##|~^/)::::/^_[%><<<>=]*!'''''''''']]]]]']$=%>>%%^~||+|}[[[^^^^^",
"##|~^))))))/^~^%%>>>>>==$!****!***!$$======%%%%%^~|{+}}}[[^^^^^^",
"##+}[^)))//////^%%%>><<>=!********!$=%>>>>%%%%^^[||+}}[[[[^^^^^^",
"##+}[^^^[~[^////[[^%><<<=]********]=%>>>>>>%%^~||++}}[[[[^^^^^^^",
"+++}~[[~_|_[/)/^~([%><<<>=]!]]]]!]$=%>>>>>>%^~(..+|}[[[^^^^^^^^^",
"}}}}}~~||(|~^)/^~|~%%>>>>>=========%%%%%%%%%^|..+}}}[[^^^^^^^^^^",
"[[[[}|||##|~^^/^~~~^%%%>><<>>>%%>>%%%%%%%%%^[|.+}}[[[[^^^^^^^^^^",
"^^[[}++###+}[^^^^[[~_}^%><<<>>>>>>>%%^[[^^^[}++}}[[[[^^^^^^^^^^^",
"^^^[}}+++++}~[[[^[[_..}%><<<>>>>>>>%^~||~~~~|+|}[[[^^^^^^^^^^^^^",
"^^^[[}}}}}}}}~~[[[~_((~%%>>>>%%%%%%%[|((|__}}}}}[[^^^^^^^^^^^^^^",
"^^^^[[[[[[}}}}||||}___[^%%%%%%%%%%%^[|..(||}}}[[[[^^^^^^^^^^^^^^",
"^^^^^^^[[[[}}+++++|}~[[[[[[^^^^^^[[}|+###++}}[[[[^^^^^^^^^^^^^^^",
"^^^^^^^^^[[[}++#+++}^[[~_(.|~~~~~_|}++++#+|}[[[^^^^^^^^^^^^^^^^^",
"^^^^^^^^[[[[}}||}}}}~[~_(...|___|((.+|}}}}}}[[^^^^^^^^^^^^^^^^^^",
"^^^^^[[[[[[[}}}}}}}}}}||....(|||((.+}}}}}}[[[[^^^^^^^^^^^^^^^^^^",
"^^^^[[[[[[[[[[}[[[}}}+++####+++++##|}}[[[[[[[^^^^^^^^^^^^^^^^^^^",
"^^^^[[[[[[[[[[[[[[[}}++#+++++++++++}}[[[[[[[^^^^^^^^^^^^^^^^^^^^",
"^^^^[[[[[[[[[[[[[[[}}}}}}}}}}}}}}}}}[[[[[[^^^^^^^^^^^^^^^^^^^^^^",
"^^^^^^[^^^[[[[[[[[[[}}}}}}}}}}}}}}[[[[[^^^^^^^^^^^^^^^^^^^^^^^^^",
"^^^^^^^^^^^[[[[[[[[[[[}}[[[[[[[[[[[[[^^^^^^^^^^^^^^^^^^^^^^^^^^^",
"^^^^^^^^^^^^[[[[[[[[[[[[[[[[[[[[[[[[^^^^^^^^^^^^^^^^^^^^^^^^^^^^",
"^^^^^^^^^^^^[[[[[[[[[[[[[[[[[[[[[[[[^^^^^^^^^^^^^^^^^^^^^^^^^^^^"};
