/* XPM */
static char * tauren_base_xpm[] = {
"64 64 37 1",
" 	c None",
".	c #509B66",
"+	c #305C3C",
"@	c #3B724B",
"#	c #171D17",
"$	c #356643",
"%	c #FFFFFF",
"&	c #4A905E",
"*	c #4F9964",
"=	c #3D754D",
"-	c #223C29",
";	c #396D47",
">	c #4E9864",
",	c #24402B",
"'	c #203826",
")	c #448356",
"!	c #1A1E17",
"~	c #463117",
"{	c #714417",
"]	c #7C4917",
"^	c #583917",
"/	c #7A4817",
"(	c #352A17",
"_	c #181D17",
":	c #4E9763",
"<	c #6F4317",
"[	c #503517",
"}	c #1F3524",
"|	c #AEB0AE",
"1	c #513617",
"2	c #19251B",
"3	c #458557",
"4	c #AAAFAB",
"5	c #3E774E",
"6	c #704417",
"7	c #5F3C17",
"8	c #794717",
"................................................................",
"................................................................",
"................................................................",
"................................................................",
"................................................................",
"................................................................",
"................................................................",
"................................................................",
"................................................................",
"................................................................",
"................................................................",
"................................................................",
"................................................................",
"................................................................",
"................................................................",
"................................................................",
"................................................................",
"................................................................",
"................................................................",
"................................................................",
".......+................................................+.......",
"......@#................................................#@......",
".....$##................................................##$.....",
".....#%#................................................#%#.....",
"....&%%#.........*=-#########################;>.........#%%&....",
"....#%%#........*,############################'>........#%%#....",
"....#%%#).......=##!~{]]]]#^^^#^^#^^^#]]]]/(_##;.......)#%%#....",
"....#%%%#:......-#!<]]]]]#^^^#^^^^#^^^#]]]]^[_#}......:#%%%#....",
"....#%%%|#).....##~]]]]]#^^#^^^^#^^^#^^#]]]]^(##.....)#%%%|#....",
"....#%%%%|########{]]]]]#^#]#^^#^^^#]#^#]]]]^1########%%%%|#....",
"....#|%%%%%%%%%%##]]]]]]]#]]#^#]#^^#]]#]]]]]^^##%%%%%%%%%||#....",
"....&||%%%%%%%%%##]]]]]]]]]]#^#]]#^#]]]]]]]]^^##%%%%%%%%|||&....",
".....2||%%%%%%%%##]]]]]]]]]]]#]]]]#]]]]]]]]]^^##||||||||||2.....",
".....3#|||||||||##]]]]]]]]]]]]]]]]]]]]]]]]]]^^##|||4|||||#3.....",
"......5###########]]]]]]]]]]]]]]]]]]]]]]]]]]^^###########5......",
"................##]]]]]]]]]]]]]]]]]]]]]]]]]]^^##................",
"................##]]]]]]]]]]]]]]]]]]]]]]]]]]^^##................",
"................##]]]]####]]]]]]]]]]]]####]]^^##................",
"................##]]]]]]####]]]]]]]]####]]]]^^##................",
"................##]]]]]]]]####]]]]####]]]]]]^^##................",
"................##]]]]]]]]]]########]]]]]]]]^^##................",
"................##]]]]]]]]]]]######]]]]]]]]]^^##................",
"................##]]]]]]]]]##########]]]]]]]^^##................",
"................##]]]]]]]]#^^^^^^^^^^#]]]]]]^^##................",
"................##]]]]]]]#^^#^^^^^^#^^#]]]]]^^##................",
"................##]]]]]]]#^^^#^^^^#^^^#]]]]]^^##................",
"................##]]]]]]]#^^^^#^^#^^^^#]]]]]^^##................",
"................##]]]]]]]#^^^^#^^#^^^^#]]]]]^^##................",
"................##]/]]]]]]#^^^^^^^^^^#]]]]/]^^##................",
"................##^6]]]]]]]##########]]]]]6^^^##................",
"................##178]]]]]]]]]]]]]]]]]]]]87^^1##................",
"................##(^76/]]]]]]]]]]]]]]]]]67^^^(##................",
"................}#_[^^^^^^^^^^^^^^^^^^^^^^^^[_#}................",
"................;##_(1^^^^^^^^^^^^^^^^^^^^^(_##;................",
"................>'############################'>................",
".................>;}#########################;>.................",
"................................................................",
"................................................................",
"................................................................",
"................................................................",
"................................................................",
"................................................................",
"................................................................",
"................................................................"};
