/* XPM */
static char * grass_xpm[] = {
"64 64 97 2",
"  	c None",
". 	c #C22424",
"+ 	c #000000",
"@ 	c #FFFFFF",
"# 	c #000000",
"$ 	c #171C31",
"% 	c #B6BEC8",
"& 	c #8F9AB0",
"* 	c #677598",
"= 	c #414B66",
"- 	c #242A3D",
"; 	c #6FB151",
"> 	c #53A03B",
", 	c #347B2C",
"' 	c #114517",
") 	c #082B0C",
"! 	c #8DC39A",
"~ 	c #69B57F",
"{ 	c #509B66",
"] 	c #296640",
"^ 	c #163C2B",
"/ 	c #C8B3A2",
"( 	c #9D7658",
"_ 	c #755338",
": 	c #503625",
"< 	c #342319",
"[ 	c #C8B3A2",
"} 	c #A68364",
"| 	c #000000",
"1 	c #000000",
"2 	c #21110D",
"3 	c #65B1B8",
"4 	c #4D8AB3",
"5 	c #425B9E",
"6 	c #33418A",
"7 	c #1D235D",
"8 	c #E1DDD6",
"9 	c #000000",
"0 	c #000000",
"a 	c #000000",
"b 	c #000000",
"c 	c #E9CE7C",
"d 	c #000000",
"e 	c #D77728",
"f 	c #BE5B1E",
"g 	c #000000",
"h 	c #000000",
"i 	c #BC4952",
"j 	c #9E2E46",
"k 	c #71193C",
"l 	c #000000",
"m 	c #000000",
"n 	c #000000",
"o 	c #000000",
"p 	c #000000",
"q 	c #000000",
"r 	c #000000",
"s 	c #000000",
"t 	c #000000",
"u 	c #000000",
"v 	c #000000",
"w 	c #000000",
"x 	c #000000",
"y 	c #000000",
"z 	c #000000",
"A 	c #000000",
"B 	c #000000",
"C 	c #000000",
"D 	c #000000",
"E 	c #000000",
"F 	c #000000",
"G 	c #000000",
"H 	c #000000",
"I 	c #000000",
"J 	c #000000",
"K 	c #000000",
"L 	c #000000",
"M 	c #000000",
"N 	c #000000",
"O 	c #000000",
"P 	c #000000",
"Q 	c #000000",
"R 	c #000000",
"S 	c #000000",
"T 	c #000000",
"U 	c #000000",
"V 	c #000000",
"W 	c #000000",
"X 	c #000000",
"Y 	c #000000",
"Z 	c #000000",
"` 	c #000000",
" .	c #000000",
"..	c #000000",
"+.	c #000000",
"@.	c #000000",
"#.	c #000000",
"{ { { { { { { { { { { { { { { { { { { { { { { { { { { { { { { { { { { { { { { { { { { { { { { { { { { { { { { { { { { { { { { { ",
"{ { { { { { { { { { { { { { { { { { { { { { { { { { { { { { { { { { { { { { { { { { { ] ] ] { { { { { { { { { { { { { { { { { { ",
"{ { { { { { { { { { { { { { { { { { { { ] ] ] { { { { { { { ] ] ] { { { { { { { { { ] ' ' ' ] ] { { { ] { { { { { { { { { { { { ",
"{ { { { { { { { { { { { { { { { { { { ] ' ' ^ ] { { { { { ] ' ' ' ] { { { { { { { ] , , , , ] ^ ] ] ] ' ] { { { { { { { { { { { ",
"{ { { { { { { { { { { ] ^ < < ] { { ] ' , , , ] < < ^ ] ] ' , , , , ^ ] ] ] < < < , , > > > > > ' ' ' , , ^ { { { { { { { { { { ",
"{ { { { { { { { { { ] , , , , ' ^ ^ ' , > , , , , > , ' < ' , > > > , < ^ , , > > , > > > > > > , , , > > , ^ ] { { { { { { { { ",
"{ { { { { { { { { ] , , , > > > , , , > > > , , > > > , , , , > > > > > > , > > > , > > > > > > > > > > > , ' ] { { { { { { { { ",
"{ { { { { { { { { ] , , , > > > > > > > > > > > > > > > > > > > > > > > > > , > > > > > > > > > > > > > > , < ] { { { { { { { { ",
"{ { { { { { { { { ^ , > > > > > > > > > > > > > > > > > > > > > > > > > > > > , > > > > > > > > > > > > , ' 2 ] { { { { { { { { ",
"{ { { { { { { { ] ] > > > > > > > > > > > > > > > > > > > > > > > > > > > > > > > > > > > > > > > > > > , ] ) < ] { { { { { { { ",
"{ { { { { { { ^ ) , , > > > > > > > > > > > > > > > > > > > > > > > > > > > > > > > > > > > > > > > > > > , ] 2 ^ { { { { { { { ",
"{ { { { { { ] ) ' , > > > > > > > > > > > > > > > > > > > > > > > > > > > > > > > > > > > > > > > > > > , , ] ) ^ { { { { { { { ",
"{ { { { { { ] ' , > > > > > > > > > > > > > > > > > > > > > > > > > > > > > > > > > > > > > > > > > > > > > ] ) < ] { { { { { { ",
"{ { { { { ] ' , > > > > > > > > > > > > > > > > > > > > > > > > > > > > > > > > > > > > > > > > > > > > > > , ' ) ^ { { { { { { ",
"{ { { { { < ' , > > > > > > > > > > > > > > > > > > > > > > > > > > > > > > > > > > > > > > > > > > > > > > > , ' < ] { { { { { ",
"{ { { { ] ) , > > > > > > > > > > > > > > > > > > > > > > > > > > > > > > > > > > > > > > > > > > > > > > > > > , < ^ { { { { { ",
"{ { { { < < ] , > > > > > > > > > > > > > > > > > > > > > > > > > > > > > > > > > > > > > > > > > > > > > > > > , ' 2 ] { { { { ",
"{ { { ] < : < ' , > > > > > > > > > > > > > > > > > > > > > > > > > > > > > > > > > > > > > > > > > > > > > > > , ' < ] { { { { ",
"{ { { ] 2 : : < ' , > > > > > > > > > > > > > > > > > > > > > > > > > > > > > > > > > > > > > > > > > > > > > > , ' 2 ] { { { { ",
"{ { { ] 2 : : < ) , > > > > > > > > > > > > > > > > > > > > > > > > > > > > > > > > > > > > > > > > > > > > > > , ' 2 ^ { { { { ",
"{ { { ] ^ < : : ' , > > > > > > > > > > > > > > > > > > > > > > > > > > > > > > > > > > > > > > > > > > > > > ' ) ' ^ ] { { { { ",
"{ { { ] ] ^ : : ' , , > > > > > > > > > > > > > > > > > > > > > > > > > > > > > > > > > > > > > > > > > , , , ' < < ] ] { { { { ",
"{ { { { ] < < ' ' ' , > > > > > > > > > > > > > > > > > > > > > > > > > > > > > > > > > > > > > > > > > > , ' < : < ] { { { { { ",
"{ { { { ] < ' ' , , , > > > > > > > > > > > > > > > > > > > > > > > > > > > > > > > > > > > > > > > > > > > , ' < < : { { { { { ",
"{ { { { < : ' , , > > > > > > > > > > > > > > > > > > > > > > > > > > > > > > > > > > > > > > > > > > > > > > , ' : < ] { { { { ",
"{ { { { < ' , , , > > > > > > > > > > > > > > > > > > > > > > > > > > > > > > > > > > > > > > > > > > > > > > > , ' < ] { { { { ",
"{ { { ] < ' , > > > > > > > > > > > > > > > > > > > > > > > > > > > > > > > > > > > > > > > > > > > > > > > > > , ' 2 ] { { { { ",
"{ { { ] 2 ' , > > > > > > > > > > > > > > > > > > > > > > > > > > > > > > > > > > > > > > > > > > > > > > > > > , ' 2 ] { { { { ",
"{ { { ] < ' , > > > > > > > > > > > > > > > > > > > > > > > > > > > > > > > > > > > > > > > > > > > > > > > > > , ' 2 ] { { { { ",
"{ { { ] < ' , , > > > > > > > > > > > > > > > > > > > > > > > > > > > > > > > > > > > > > > > > > > > > > > > > , ' < : ] { { { ",
"{ { ] < : ' , , , > > > > > > > > > > > > > > > > > > > > > > > > > > > > > > > > > > > > > > > > > > > > > , , , ' : < ] { { { ",
"{ { ] < : : ' ] , , , > > > > > > > > > > > > > > > > > > > > > > > > > > > > > > > > > > > > > > > > > , , , , ' : : < ] { { { ",
"{ { ] < : _ _ : ' , > > > > > > > > > > > > > > > > > > > > > > > > > > > > > > > > > > > > > > > > > > > , ' : _ _ : < ^ { { { ",
"{ { ] < _ _ _ : , , > > > > > > > > > > > > > > > > > > > > > > > > > > > > > > > > > > > > > > > > > > > > , ] _ _ _ : ^ ] { { ",
"{ { ] : _ _ : ' , , > > > > > > > > > > > > > > > > > > > > > > > > > > > > > > > > > > > > > > > > > > > > > , : _ _ : ^ ] { { ",
"{ { ] < _ _ : ' , > > > > > > > > > > > > > > > > > > > > > > > > > > > > > > > > > > > > > > > > > > > > , , , ' _ _ : ^ ] { { ",
"{ { ^ : _ _ : ' , > > > > > > > > > > > > > > > > > > > > > > > > > > > > > > > > > > > > > > > > > > > > , ) ' : _ _ : ^ ] { { ",
"{ { ] ] : : < ' , > > > > > > > > > > > > > > > > > > > > > > > > > > > > > > > > > > > > > > > > > > > > > ] ] < : : : ] ] { { ",
"{ { ] ] < : : ' , , , > > > > > > > > > > > > > > > > > > > > > > > > > > > > > > > > > > > > > > > > > > > > , ' < 2 ] ] ] { { ",
"{ { ] ] < : : < ' ' , > > > > > > > > > > > > > > > > > > > > > > > > > > > > > > > > > > > > > > > > > > > > , ' : 2 ] ] ] { { ",
"{ { { ] < : : : ' ] > > > > > > > > > > > > > > > > > > > > > > > > > > > > > > > > > > > > > > , > > > > > > , ' _ < < ^ ] { { ",
"{ { { ] 2 : _ : ' , , > > > > > > > > > > > > > , > > > > > , > > > > > > , > > > > > > > > > > , , > > > , , , ' _ _ : ^ ] { { ",
"{ { { ] 2 _ _ _ : ' , > > > , , > > > > > > > , ] > > > > , , > > > > > > ] , > > > > > , > > , , , , , , , , ' : _ _ : ^ ] { { ",
"{ { { ] < _ _ _ : < ' , > > , , > > > > > > , ' ] , > > , ' , > > > > > , ) , > > > > , ' , > , , ' ' ' ' ] ] < : _ _ : ^ ] { { ",
"{ { ] ] < _ _ _ : : < ] , , ' ' > > > > > , ' < ' , > , ' < , > > > > , , < ] , > > , ' < , , , ' < < < < : _ _ : : _ : ^ ] { { ",
"{ { ] ] < _ _ _ : _ : ^ ' ] : ' , > > > , , ) < < : ' ' < < _ ' ' , > , ' : : ' , , ' : _ : ' ' : _ _ _ _ _ _ _ _ _ : < ^ ] { { ",
"{ { ] ] < _ _ : : _ _ : : : _ : ' ' ' ' ' , : : : : : : _ _ _ : < ^ ' ' : _ _ : ] ' : _ _ _ : : _ _ _ _ _ _ _ _ _ _ : < ^ ] { { ",
"{ { ] ] < : : : : _ _ _ _ _ _ _ : : : : : _ _ _ : _ _ _ _ _ _ _ _ : : : _ _ _ _ : : _ _ _ _ _ _ _ _ _ _ _ _ _ _ _ _ : < ^ ] { { ",
"{ { ] ] < : : : _ _ _ _ _ _ _ _ _ _ _ _ _ _ _ _ _ _ _ _ _ _ _ _ _ _ _ _ _ _ _ _ _ _ _ _ _ _ _ _ _ _ _ _ _ : _ _ _ _ _ : ^ ] { { ",
"{ { ] ] < : : _ _ _ _ _ _ _ _ _ _ _ _ _ _ _ _ _ _ _ _ _ _ _ _ _ _ _ _ _ _ _ _ _ _ _ _ _ _ _ _ _ _ _ _ _ _ : : _ _ _ _ : ^ ] { { ",
"{ { { ] < : _ _ _ _ _ _ _ _ _ _ _ _ _ _ _ _ _ _ _ _ _ _ _ _ _ _ _ _ _ _ _ _ _ _ _ _ _ _ _ _ _ _ _ _ _ _ _ : : _ _ _ _ : ^ ] { { ",
"{ { { ] 2 : _ _ _ _ _ _ _ _ _ _ _ _ _ _ _ _ _ _ _ _ _ _ _ _ _ _ _ _ _ : _ _ _ _ _ _ _ _ _ _ _ _ _ _ _ _ _ : : : _ _ _ : ^ { { { ",
"{ { { ] ^ : _ _ _ _ _ _ _ _ _ _ _ _ _ _ _ _ _ _ _ _ _ _ _ _ _ _ _ _ _ : _ _ _ _ _ _ _ _ _ _ _ _ _ _ _ _ _ _ : : _ _ _ : ] { { { ",
"{ { { ] ] < _ _ _ _ _ _ _ _ _ _ _ _ _ _ _ _ _ _ _ _ _ _ _ _ _ _ _ _ _ : _ _ _ _ _ _ _ _ _ _ _ _ _ _ _ _ _ _ _ : _ _ _ < ] { { { ",
"{ { { { ] ) _ _ _ _ _ _ _ _ _ _ _ _ _ _ _ _ _ _ _ _ _ _ _ _ _ _ _ _ _ : _ _ _ _ _ _ _ _ _ _ _ _ _ _ _ _ _ _ _ : _ _ < ] { { { { ",
"{ { { { ] ] < _ _ _ _ _ _ _ _ : : _ _ _ _ _ _ : : _ _ _ _ _ _ _ _ _ _ : 2 _ _ _ _ _ _ _ _ : : _ _ _ _ _ _ _ : : : : 2 ] { { { { ",
"{ { { { { ] ] < _ _ _ _ _ _ _ : : _ _ _ _ _ < < < _ _ _ _ _ _ _ _ : : : < < < _ _ _ _ _ _ : : _ _ _ _ _ _ : : : : ^ ^ { { { { { ",
"{ { { { { { ] ] < 2 _ _ _ _ : < ) < : _ _ < < < < : _ _ _ _ _ < < 2 2 2 ] ] < 2 < _ _ _ : < ) : _ _ _ _ < < 2 < ^ { { { { { { { ",
"{ { { { { { { ] ] ] : : : < < ] ] ] : : : ] ] ] ] < < : < : < ] ] ] ] ] ] ] ] ] ] : : < < ] ] ] < : : : ] ] ] ] { { { { { { { { ",
"{ { { { { { { { { ] ] ^ ^ ^ ] ] ] ] ] ^ ] ] ] ] ] ] ] ] ] ] ] ] { { { { { { { { ] ] ] ] ] ] ] ] ] ^ ] ] { { { { { { { { { { { { ",
"{ { { { { { { { { { { { { { { { { { { ] ] ] ] ] { { { { { { ] ] { { { { { { { { { ] ] ] ] ] ] ] ] { ] ] ] { { { { { { { { { { { ",
"{ { { { { { { { { { { { { { { { { { { ] 2 2 ^ { { { { { { { 2 2 2 ] { { { { { { { ] 2 2 2 2 2 2 ] { ] 2 ^ { { { { { { { { { { { ",
"{ { { { { { { { { { { { { { { { { { { { { { { { { { { { { { { { { { { { { { { { { { { { { { { { { { { { { { { { { { { { { { { { ",
"{ { { { { { { { { { { { { { { { { { { { { { { { { { { { { { { { { { { { { { { { { { { { { { { { { { { { { { { { { { { { { { { { "};
